<svg xmlns="http://www.w3.org/2000/svg" version="1.1" xmlns:xlink="http://www.w3.org/1999/xlink" xmlns:svgjs="http://svgjs.dev/svgjs" width="1000" height="1691" viewBox="0 0 1000 1691"><g transform="matrix(1,0,0,1,1.1083979607448669,0.6846153846153129)"><svg viewBox="0 0 146 247" data-background-color="#1d366f" preserveAspectRatio="xMidYMid meet" height="1691" width="1000" xmlns="http://www.w3.org/2000/svg" xmlns:xlink="http://www.w3.org/1999/xlink"><g id="tight-bounds" transform="matrix(1,0,0,1,-0.16182603088287806,-0.09999999999999432)"><svg viewBox="0 0 146.32365213315157 247.2" height="247.2" width="146.32365213315157"><g><svg viewBox="0 0 382.39598273885355 646.0219216441219" height="247.2" width="146.32365213315157"><g transform="matrix(1,0,0,1,0,296.00542097880606)"><svg viewBox="0 0 382.39598273885355 350.01650066531585" height="350.01650066531585" width="382.39598273885355"><g id="textblocktransform"><svg viewBox="0 0 382.39598273885355 350.01650066531585" height="350.01650066531585" width="382.39598273885355" id="textblock"><g><svg viewBox="0 0 382.39598273885355 245.672304" height="245.672304" width="382.39598273885355"><g transform="matrix(1,0,0,1,0,0)"><svg width="382.39598273885355" viewBox="3.200000047683716 -47 97.74000549316406 62.79999923706055" height="245.672304" data-palette-color="#ffffff"><path d="M22.65 0.25Q16.7 0.25 12.3-1.93 7.9-4.1 5.55-8.1 3.2-12.1 3.2-17.4L3.2-17.4Q3.2-24.75 5.98-30.45 8.75-36.15 13.5-39.28 18.25-42.4 24.05-42.4L24.05-42.4Q29.45-42.4 32.25-39.63 35.05-36.85 35.05-32.3L35.05-32.3Q35.05-29.25 33.98-27.4 32.9-25.55 30.9-25.55L30.9-25.55Q29.5-25.55 28.7-26.2 27.9-26.85 27.9-28.1L27.9-28.1Q27.9-28.55 28.1-29.75L28.1-29.75Q28.4-31.25 28.4-32.15L28.4-32.15Q28.4-36.7 23.55-36.7L23.55-36.7Q20.25-36.7 17.25-34.55 14.25-32.4 12.4-28.23 10.55-24.05 10.55-18.3L10.55-18.3Q10.55-12.3 13.9-9.03 17.25-5.75 23.8-5.75L23.8-5.75Q27.05-5.75 30.38-6.58 33.7-7.4 37.75-9.1L37.75-9.1Q38.5-9.4 39-9.4L39-9.4Q39.8-9.4 40.2-8.8 40.6-8.2 40.6-7.25L40.6-7.25Q40.6-4.2 37.3-2.75L37.3-2.75Q33.75-1.2 29.93-0.48 26.1 0.25 22.65 0.25L22.65 0.25ZM42.85 0.25Q39.75 0.25 37.9-2 36.05-4.25 36.05-7.9L36.05-7.9Q36.05-11.9 37.9-15.48 39.75-19.05 42.82-21.23 45.9-23.4 49.35-23.4L49.35-23.4Q50.45-23.4 50.82-22.98 51.2-22.55 51.45-21.45L51.45-21.45Q52.5-21.65 53.65-21.65L53.65-21.65Q56.1-21.65 56.1-19.9L56.1-19.9Q56.1-18.85 55.35-14.9L55.35-14.9Q54.2-9.15 54.2-6.9L54.2-6.9Q54.2-6.15 54.57-5.7 54.95-5.25 55.55-5.25L55.55-5.25Q56.5-5.25 57.85-6.48 59.2-7.7 61.5-10.45L61.5-10.45Q62.1-11.15 62.85-11.15L62.85-11.15Q63.5-11.15 63.87-10.55 64.25-9.95 64.25-8.9L64.25-8.9Q64.25-6.9 63.3-5.8L63.3-5.8Q61.25-3.25 58.95-1.5 56.65 0.25 54.5 0.25L54.5 0.25Q52.85 0.25 51.47-0.88 50.1-2 49.4-3.95L49.4-3.95Q46.8 0.25 42.85 0.25L42.85 0.25ZM44.65-4.8Q45.75-4.8 46.75-6.1 47.75-7.4 48.2-9.55L48.2-9.55 50.05-18.75Q47.95-18.7 46.17-17.18 44.4-15.65 43.35-13.15 42.3-10.65 42.3-7.85L42.3-7.85Q42.3-6.3 42.92-5.55 43.55-4.8 44.65-4.8L44.65-4.8ZM79.65-14Q81.05-14 81.05-11.9L81.05-11.9Q81.05-7.95 74.85-7.95L74.85-7.95Q73.65-7.95 71.4-8.4L71.4-8.4Q72.05-5.3 72.47-1.53 72.9 2.25 72.9 4.7L72.9 4.7Q72.9 10.1 71.15 12.95 69.4 15.8 66.55 15.8L66.55 15.8Q62.95 15.8 61.42 10.7 59.9 5.6 59.9-4.7L59.9-4.7Q59.9-14.3 61.97-24.18 64.05-34.05 67.67-40.53 71.3-47 75.65-47L75.65-47Q78-47 79.32-44.9 80.65-42.8 80.65-39.25L80.65-39.25Q80.65-27.5 66.6-13.65L66.6-13.65Q66.1-8.75 66.1-5.05L66.1-5.05Q66.1 0.1 66.45 5.53 66.8 10.95 67.6 10.95L67.6 10.95Q69.1 10.95 69.1 5.75L69.1 5.75Q69.1 1.85 68.57-1.8 68.05-5.45 67.15-9.5L67.15-9.5Q67.1-10.15 67.57-11.15 68.05-12.15 68.75-12.9 69.45-13.65 70-13.65L70-13.65Q71-13.65 72.4-13.55L72.4-13.55Q72.85-13.5 73.45-13.5L73.45-13.5Q75.45-13.5 77.9-13.85L77.9-13.85Q78.3-13.9 78.75-13.95 79.2-14 79.65-14L79.65-14ZM74.6-42.05Q73.7-42.05 72.37-39 71.05-35.95 69.75-30.93 68.45-25.9 67.5-20.3L67.5-20.3Q71.5-24.85 73.65-29.78 75.8-34.7 75.85-39L75.85-39Q75.85-42.05 74.6-42.05L74.6-42.05ZM99.54-11.15Q100.19-11.15 100.57-10.55 100.94-9.95 100.94-8.9L100.94-8.9Q100.94-6.9 99.99-5.8L99.99-5.8Q98.14-3.55 94.77-1.65 91.39 0.25 87.54 0.25L87.54 0.25Q82.29 0.25 79.39-2.6 76.49-5.45 76.49-10.4L76.49-10.4Q76.49-13.85 77.94-16.82 79.39-19.8 81.97-21.55 84.54-23.3 87.79-23.3L87.79-23.3Q90.69-23.3 92.44-21.58 94.19-19.85 94.19-16.9L94.19-16.9Q94.19-13.45 91.72-10.98 89.24-8.5 83.34-7.05L83.34-7.05Q84.59-4.75 88.09-4.75L88.09-4.75Q90.34-4.75 93.22-6.33 96.09-7.9 98.19-10.45L98.19-10.45Q98.79-11.15 99.54-11.15L99.54-11.15ZM86.94-18.4Q85.09-18.4 83.82-16.25 82.54-14.1 82.54-11.05L82.54-11.05 82.54-10.95Q85.49-11.65 87.19-13.05 88.89-14.45 88.89-16.3L88.89-16.3Q88.89-17.25 88.37-17.82 87.84-18.4 86.94-18.4L86.94-18.4Z" opacity="1" transform="matrix(1,0,0,1,0,0)" fill="#ffffff" class="undefined-text-0" data-fill-palette-color="primary" id="text-0"></path></svg></g></svg></g><g transform="matrix(1,0,0,1,73.03763270312103,303.669638839104)"><svg viewBox="0 0 236.32071733261148 46.34686182621185" height="46.34686182621185" width="236.32071733261148"><g transform="matrix(1,0,0,1,0,0)"><svg width="236.32071733261148" viewBox="0.6000000238418579 -37.650001525878906 195.77999877929688 38.400001525878906" height="46.34686182621185" data-palette-color="#08c076"><path d="M0.6-34.55L26.25-34.55 25.55-29.3 16.55-29.3 16.55 0 9.9 0 9.9-29.3 0.6-29.3 0.6-34.55ZM44.45-27.2Q47.95-27.2 49.95-25.05 51.95-22.9 51.95-19.15L51.95-19.15 51.95 0 45.55 0 45.55-18.15Q45.55-20.5 44.72-21.45 43.9-22.4 42.3-22.4L42.3-22.4Q40.7-22.4 39.35-21.38 38-20.35 36.75-18.45L36.75-18.45 36.75 0 30.35 0 30.35-37 36.75-37.65 36.75-23.3Q39.95-27.2 44.45-27.2L44.45-27.2ZM81.09-13.85Q81.09-13.35 80.95-11.25L80.95-11.25 64.34-11.25Q64.64-7.4 66.34-5.75 68.05-4.1 70.84-4.1L70.84-4.1Q72.59-4.1 74.15-4.67 75.7-5.25 77.45-6.45L77.45-6.45 80.09-2.8Q75.7 0.75 70.3 0.75L70.3 0.75Q64.25 0.75 60.97-2.95 57.7-6.65 57.7-13.05L57.7-13.05Q57.7-17.1 59.09-20.33 60.5-23.55 63.15-25.38 65.8-27.2 69.45-27.2L69.45-27.2Q75-27.2 78.05-23.68 81.09-20.15 81.09-13.85L81.09-13.85ZM74.75-15.4L74.75-15.7Q74.75-22.65 69.59-22.65L69.59-22.65Q67.25-22.65 65.92-20.93 64.59-19.2 64.34-15.4L64.34-15.4 74.75-15.4ZM116.49-18.3Q120.04-17.65 122.22-15.75 124.39-13.85 124.39-9.95L124.39-9.95Q124.39-4.55 120.59-2.27 116.79 0 109.94 0L109.94 0 99.54 0 99.54-34.55 108.59-34.55Q122.89-34.55 122.89-25.75L122.89-25.75Q122.89-22.7 121.04-20.78 119.19-18.85 116.49-18.3L116.49-18.3ZM109.24-29.7L106.14-29.7 106.14-20.35 110.19-20.35Q112.94-20.35 114.54-21.58 116.14-22.8 116.14-25.2L116.14-25.2Q116.14-27.7 114.47-28.7 112.79-29.7 109.24-29.7L109.24-29.7ZM109.99-4.95Q113.64-4.95 115.57-6.05 117.49-7.15 117.49-10.2L117.49-10.2Q117.49-13.15 115.67-14.45 113.84-15.75 110.69-15.75L110.69-15.75 106.14-15.75 106.14-4.95 109.99-4.95ZM151.69-13.85Q151.69-13.35 151.54-11.25L151.54-11.25 134.94-11.25Q135.24-7.4 136.94-5.75 138.64-4.1 141.44-4.1L141.44-4.1Q143.19-4.1 144.74-4.67 146.29-5.25 148.04-6.45L148.04-6.45 150.69-2.8Q146.29 0.75 140.89 0.75L140.89 0.75Q134.84 0.75 131.56-2.95 128.29-6.65 128.29-13.05L128.29-13.05Q128.29-17.1 129.69-20.33 131.09-23.55 133.74-25.38 136.39-27.2 140.04-27.2L140.04-27.2Q145.59-27.2 148.64-23.68 151.69-20.15 151.69-13.85L151.69-13.85ZM145.34-15.4L145.34-15.7Q145.34-22.65 140.19-22.65L140.19-22.65Q137.84-22.65 136.51-20.93 135.19-19.2 134.94-15.4L134.94-15.4 145.34-15.4ZM165.79-27.2Q171.14-27.2 175.19-24.05L175.19-24.05 172.69-20.3Q169.29-22.45 166.04-22.45L166.04-22.45Q164.14-22.45 163.09-21.73 162.04-21 162.04-19.8L162.04-19.8Q162.04-18.9 162.49-18.3 162.94-17.7 164.11-17.18 165.29-16.65 167.59-16L167.59-16Q171.89-14.85 173.96-12.95 176.04-11.05 176.04-7.65L176.04-7.65Q176.04-3.7 172.84-1.48 169.64 0.75 164.89 0.75L164.89 0.75Q161.64 0.75 158.96-0.25 156.29-1.25 154.34-3L154.34-3 157.54-6.6Q160.99-4 164.74-4L164.74-4Q166.89-4 168.16-4.85 169.44-5.7 169.44-7.2L169.44-7.2Q169.44-8.35 168.96-9.03 168.49-9.7 167.26-10.23 166.04-10.75 163.44-11.5L163.44-11.5Q159.39-12.6 157.49-14.58 155.59-16.55 155.59-19.5L155.59-19.5Q155.59-21.7 156.86-23.45 158.14-25.2 160.46-26.2 162.79-27.2 165.79-27.2L165.79-27.2ZM194.13-5.35L196.38-1.25Q194.98-0.25 193.26 0.25 191.53 0.75 189.73 0.75L189.73 0.75Q185.83 0.7 183.81-1.48 181.78-3.65 181.78-7.9L181.78-7.9 181.78-21.85 177.63-21.85 177.63-26.45 181.78-26.45 181.78-32.3 188.18-33.05 188.18-26.45 194.33-26.45 193.68-21.85 188.18-21.85 188.18-8.05Q188.18-6.1 188.86-5.25 189.53-4.4 190.98-4.4L190.98-4.4Q192.43-4.4 194.13-5.35L194.13-5.35Z" opacity="1" transform="matrix(1,0,0,1,0,0)" fill="#08c076" class="undefined-text-1" data-fill-palette-color="secondary" id="text-1"></path></svg></g></svg></g></svg></g></svg></g><g transform="matrix(1,0,0,1,101.19261571912774,0)"><svg viewBox="0 0 180.01075130059806 180.01075130059806" height="180.01075130059806" width="180.01075130059806"><g><svg></svg></g><g id="icon-0"><svg viewBox="0 0 180.01075130059806 180.01075130059806" height="180.01075130059806" width="180.01075130059806"><g><path d="M0 90.005c0-49.709 40.297-90.005 90.005-90.005 49.709 0 90.005 40.297 90.006 90.005 0 49.709-40.297 90.005-90.006 90.006-49.709 0-90.005-40.297-90.005-90.006zM90.005 157.856c37.473 0 67.85-30.378 67.851-67.851 0-37.473-30.378-67.85-67.851-67.85-37.473 0-67.85 30.378-67.85 67.85 0 37.473 30.378 67.85 67.85 67.851z" data-fill-palette-color="accent" fill="#08c076" stroke="transparent"></path><ellipse rx="89.10532189379605" ry="89.10532189379605" cx="90.00537565029903" cy="90.00537565029903" fill="#08c076" stroke="transparent" stroke-width="0" fill-opacity="1" data-fill-palette-color="accent"></ellipse></g><g transform="matrix(1,0,0,1,74.42552661554717,74.42569962796773)"><svg viewBox="0 0 31.15969806950372 31.159352044662594" height="31.159352044662594" width="31.15969806950372"><g><svg xmlns="http://www.w3.org/2000/svg" xmlns:xlink="http://www.w3.org/1999/xlink" version="1.1" x="0" y="0" viewBox="4.9670000076293945 5 90.0009994506836 90" enable-background="new 0 0 100 100" xml:space="preserve" height="31.159352044662594" width="31.15969806950372" class="icon-s-0" data-fill-palette-color="quaternary" id="s-0"><g fill="#1d366f" data-fill-palette-color="quaternary"><polygon points="81.588,69.219 76.042,77.733 49.901,5 30.566,58.797 24.486,43.546 4.967,95 17.555,95 45,95 64.794,95 82.249,95    94.968,95  " fill="#1d366f" data-fill-palette-color="quaternary"></polygon></g></svg></g></svg></g></svg></g></svg></g><g></g></svg></g><defs></defs></svg><rect width="146.32365213315157" height="247.2" fill="none" stroke="none" visibility="hidden"></rect></g></svg></g></svg>